<svg width="100" height="100" viewBox="0 0 100 100" fill="none" xmlns="http://www.w3.org/2000/svg">
<g filter="url(#filter0_d_3_36)">
<path d="M85.0833 19.0833C82.993 16.9857 80.5092 15.3214 77.7742 14.1858C75.0393 13.0502 72.1071 12.4656 69.1458 12.4656C66.1845 12.4656 63.2523 13.0502 60.5174 14.1858C57.7825 15.3214 55.2987 16.9857 53.2083 19.0833L50 22.3333L46.7917 19.0833C44.7013 16.9857 42.2175 15.3214 39.4826 14.1858C36.7477 13.0502 33.8155 12.4656 30.8542 12.4656C27.8928 12.4656 24.9607 13.0502 22.2257 14.1858C19.4908 15.3214 17.007 16.9857 14.9167 19.0833C6.08333 27.9167 5.54166 42.8333 16.6667 54.1667L50 87.5L83.3333 54.1667C94.4583 42.8333 93.9167 27.9167 85.0833 19.0833Z" stroke="white" stroke-width="2" stroke-linecap="round" stroke-linejoin="round"/>
<path d="M14.5833 50H39.5833L41.6667 45.8333L50 64.5833L58.3333 35.4167L64.5833 50H85.4167" stroke="white" stroke-width="2" stroke-linecap="round" stroke-linejoin="round"/>
</g>
<defs>
<filter id="filter0_d_3_36" x="-4" y="0" width="108" height="108" filterUnits="userSpaceOnUse" color-interpolation-filters="sRGB">
<feFlood flood-opacity="0" result="BackgroundImageFix"/>
<feColorMatrix in="SourceAlpha" type="matrix" values="0 0 0 0 0 0 0 0 0 0 0 0 0 0 0 0 0 0 127 0" result="hardAlpha"/>
<feOffset dy="4"/>
<feGaussianBlur stdDeviation="2"/>
<feComposite in2="hardAlpha" operator="out"/>
<feColorMatrix type="matrix" values="0 0 0 0 0 0 0 0 0 0 0 0 0 0 0 0 0 0 0.25 0"/>
<feBlend mode="normal" in2="BackgroundImageFix" result="effect1_dropShadow_3_36"/>
<feBlend mode="normal" in="SourceGraphic" in2="effect1_dropShadow_3_36" result="shape"/>
</filter>
</defs>
</svg>
