<svg width="100" height="100" viewBox="0 0 100 100" fill="none" xmlns="http://www.w3.org/2000/svg">
<path d="M66.6666 87.5V79.1667C66.6666 74.7464 64.9107 70.5072 61.7851 67.3816C58.6595 64.256 54.4203 62.5 50 62.5H25C20.5797 62.5 16.3405 64.256 13.2149 67.3816C10.0893 70.5072 8.33331 74.7464 8.33331 79.1667V87.5" stroke="white" stroke-width="2" stroke-linecap="round" stroke-linejoin="round"/>
<path d="M37.5 45.8333C46.7047 45.8333 54.1666 38.3714 54.1666 29.1667C54.1666 19.9619 46.7047 12.5 37.5 12.5C28.2952 12.5 20.8333 19.9619 20.8333 29.1667C20.8333 38.3714 28.2952 45.8333 37.5 45.8333Z" stroke="white" stroke-width="2" stroke-linecap="round" stroke-linejoin="round"/>
<path d="M91.6667 87.5V79.1667C91.6639 75.4739 90.4348 71.8866 88.1724 68.968C85.9099 66.0494 82.7422 63.9649 79.1667 63.0417" stroke="white" stroke-width="2" stroke-linecap="round" stroke-linejoin="round"/>
<path d="M66.6667 13.0417C70.2517 13.9596 73.4293 16.0446 75.6985 18.968C77.9677 21.8913 79.1994 25.4868 79.1994 29.1875C79.1994 32.8882 77.9677 36.4837 75.6985 39.407C73.4293 42.3304 70.2517 44.4154 66.6667 45.3333" stroke="white" stroke-width="2" stroke-linecap="round" stroke-linejoin="round"/>
</svg>
